# xmcd
#
# Track frame offsets:
#	150
#	24043
#	45413
#	70524
#	93245
#	120298
#	152967
#
# Disc length: 2460 seconds
#
# Revision: 1
# Processed by: cddbd v1.5PL3 Copyright (c) Steve Scherf et al.
# Submitted via: CDex 1.50Beta5
#
DISCID=41099a07
DTITLE=くるがみ龍 - the interlude
DYEAR=1900
DGENRE=
TTITLE0=ミスホワイトに口付けを
TTITLE1=Believes You
TTITLE2=夏のLoveSong
TTITLE3=Celebration
TTITLE4=ココロのつ・ば・さ
TTITLE5=White Love
TTITLE6=infinite love
EXTD=Assemblage 5th.anniversary memorial music album
EXTT0=
EXTT1=
EXTT2=
EXTT3=
EXTT4=
EXTT5=
EXTT6=
PLAYORDER=
